# xmcd CD database file
#
# Track frame offsets:
#	150
#	14792
#	32622
#	52615
#	69715
#	85837
#	101647
#	119960
#	136905
#	152937
#	167490
#	185410
#
# Disc length: 2705 seconds
#
# Revision: 4
# Processed by: cddbd v1.5.2PL0 Copyright (c) Steve Scherf et al.
# Submitted via: CDex 1.51
#
DISCID=a10a8f0c
DTITLE=Soul Asylum - Grave Dancers Union
DYEAR=2005
DGENRE=Rock
TTITLE0=Somebody To Shove
TTITLE1=Black Gold
TTITLE2=Runaway Train
TTITLE3=Keep It Up
TTITLE4=Homesick
TTITLE5=Get On Out
TTITLE6=New World
TTITLE7=April Fool
TTITLE8=Without A Trace
TTITLE9=Growing Into You
TTITLE10=99%
TTITLE11=The Sun Maid
EXTD=YEAR: 2005
EXTT0=
EXTT1=
EXTT2=
EXTT3=
EXTT4=
EXTT5=
EXTT6=
EXTT7=
EXTT8=
EXTT9=
EXTT10=
EXTT11=
PLAYORDER=
